<?xml version="1.0" encoding="UTF-8" standalone="no"?>
<!DOCTYPE svg PUBLIC "-//W3C//DTD SVG 1.1//EN" "http://www.w3.org/Graphics/SVG/1.1/DTD/svg11.dtd">
<svg width="100%" height="100%" viewBox="0 0 800 800" version="1.1" xmlns="http://www.w3.org/2000/svg" xmlns:xlink="http://www.w3.org/1999/xlink" xml:space="preserve" xmlns:serif="http://www.serif.com/" style="fill-rule:evenodd;clip-rule:evenodd;stroke-linejoin:round;stroke-miterlimit:2;">
    <g id="SvgjsG1119" transform="matrix(8.88884,0,0,8.88884,-44.4464,-83.7395)">
        <g transform="matrix(0.112501,0,0,0.112501,5.00025,9.42075)">
            <rect x="0" y="0" width="800" height="800" style="fill:rgb(235,235,235);"/>
        </g>
        <g transform="matrix(0.875,0,0,0.875,6.25006,6.80263)">
            <path d="M21.768,35.732C20.791,34.755 19.209,34.755 18.233,35.732L5.733,48.232C4.756,49.208 4.756,50.791 5.733,51.767L18.233,64.267C18.721,64.756 19.36,65 20,65C20.64,65 21.279,64.756 21.768,64.268C22.745,63.291 22.745,61.709 21.768,60.733L11.035,50L21.767,39.268C22.744,38.292 22.744,36.708 21.768,35.732Z" style="fill-rule:nonzero;"/>
        </g>
        <g transform="matrix(0.875,0,0,0.875,6.25006,6.80263)">
            <path d="M81.768,35.732C80.791,34.755 79.209,34.755 78.233,35.732C77.256,36.708 77.256,38.291 78.233,39.267L88.965,50L78.232,60.732C77.255,61.709 77.255,63.291 78.232,64.267C78.721,64.756 79.36,65 80,65C80.64,65 81.279,64.756 81.768,64.268L94.268,51.768C95.245,50.792 95.245,49.209 94.268,48.233L81.768,35.732Z" style="fill-rule:nonzero;"/>
        </g>
        <g transform="matrix(0.875,0,0,0.875,6.25006,6.80263)">
            <path d="M65.604,19.442L60.905,17.732C60.216,17.481 59.496,17.354 58.767,17.354C56.15,17.354 53.789,19.007 52.894,21.467L51.185,26.163C51.185,26.164 51.184,26.165 51.183,26.166C51.182,26.167 51.183,26.168 51.183,26.169L34.083,73.151C34.031,73.294 34.014,73.444 34.016,73.595C34.016,73.62 34.014,73.645 34.016,73.67C34.017,73.687 34.014,73.704 34.016,73.721L35.933,90.381C35.988,90.852 36.303,91.251 36.747,91.413C36.887,91.464 37.031,91.488 37.175,91.488C37.489,91.488 37.798,91.369 38.034,91.146L50.213,79.616C50.242,79.589 50.263,79.555 50.289,79.525C50.313,79.497 50.338,79.471 50.36,79.441C50.429,79.347 50.489,79.246 50.529,79.136L67.629,32.153C67.629,32.153 67.629,32.152 67.63,32.152L67.63,32.151L69.34,27.453C69.91,25.884 69.837,24.187 69.132,22.674C68.424,21.161 67.172,20.013 65.604,19.442ZM55.243,22.322C55.78,20.845 57.196,19.853 58.766,19.853C59.203,19.853 59.634,19.93 60.048,20.081L64.747,21.791C65.688,22.133 66.439,22.822 66.862,23.729C67.286,24.637 67.33,25.655 66.987,26.596L65.704,30.12L57.484,27.128C57.483,27.128 57.483,27.127 57.482,27.127L57.48,27.127L53.958,25.845L55.243,22.322ZM48.606,77.106L46.256,76.251L62.502,31.617L64.85,32.472L48.606,77.106ZM41.558,74.541L57.804,29.906L60.153,30.761L43.906,75.395L41.558,74.541ZM36.859,72.831L53.105,28.196L55.454,29.051L39.208,73.686L36.859,72.831ZM36.73,75.445L39.527,76.463L39.528,76.463L44.225,78.172C44.225,78.172 44.226,78.172 44.226,78.173L44.227,78.173L47.024,79.191L38.13,87.611L36.73,75.445Z" style="fill-rule:nonzero;"/>
        </g>
    </g>
</svg>
